<svg height="1024" viewBox="0 0 1024 1024" width="1024" xmlns="http://www.w3.org/2000/svg"><path d="m935.672 384.668c0 25.81-5.722 48.576-17.166 68.299s-28.123 34.819-50.037 45.289c30.923 10.957 54.602 28.062 71.038 51.315 16.435 23.254 24.653 50.829 24.653 82.726 0 52.35-19.174 92.221-57.524 119.614s-95.752 41.089-172.208 41.089h-190.653v-68.664h67.934v-413.08h-67.934v-68.664h193.575c66.96 0 116.753 11.687 149.38 35.062 32.628 23.375 48.942 59.046 48.942 107.014zm-82.178 4.383c0-25.81-9.131-45.228-27.392-58.255-18.262-13.027-44.072-19.54-77.43-19.54h-54.42v160.703h55.15c69.395 0 104.092-27.636 104.092-82.908zm26.297 241.785c0-30.436-10.774-53.142-32.323-68.116-21.549-14.975-54.968-22.462-100.257-22.462h-52.959v184.078h32.871c32.871 0 59.898-2.009 81.082-6.026 21.184-4.018 38.41-12.784 51.681-26.297 13.27-13.514 19.905-33.906 19.905-61.177zm-443.029-187v-132.58h-113.588v413.08h71.586v68.664h-224.985v-68.664h70.125v-413.08h-112.857v132.58h-67.934v-201.244h445.586v201.244z" fill="#0076a5"/></svg>